# xmcd
#
# Track frame offsets: 
#        182
#        9942
#        27742
#        41330
#        58232
#        71372
#        84877
#        97350
#        111630
#        123165
#        137612
#        153205
#        167600
#        188332
#        205430
#        224130
#        245280
#        258365
#        278190
#        294735
#
# Disc length: 4119 seconds
#
# Revision: 26
# Processed by: cddbd v1.5.2PL0 Copyright (c) Steve Scherf et al.
# Submitted via: ExactAudioCopyFreeDBPlugin 1.0
#
DISCID=26101514
DTITLE=The Rolling Stones - Singles Collection (The London Years) CD 2
DYEAR=1989
DGENRE=Rock
TTITLE0=Gotta Get Away (1965)
TTITLE1=19th Nervous Breakdown (1966)
TTITLE2=Sad Day (1966)
TTITLE3=Paint It, Black (1966)
TTITLE4=Stupid Girl (1966)
TTITLE5=Long, Long While (1966)
TTITLE6=Mother's Little Helper (1966)
TTITLE7=Lady Jane (1966)
TTITLE8=Have You Seen Your Mother, Baby, Standing In The Shadow? (1966
TTITLE8=)
TTITLE9=Who's Driving Your Plane? (1966)
TTITLE10=Let's Spend The Night Together (1967)
TTITLE11=Ruby Tuesday (1967)
TTITLE12=We Love You (1967)
TTITLE13=Dandelion (1967)
TTITLE14=She's A Rainbow (1967)
TTITLE15=2000 Light Years From Home (1967)
TTITLE16=In Another Land (1967)
TTITLE17=The Lantern (1967)
TTITLE18=Jumpin' Jack Flash (1968)
TTITLE19=Child Of The Moon (Rmk) (1968)
EXTD=
EXTT0=
EXTT1=
EXTT2=
EXTT3=
EXTT4=
EXTT5=
EXTT6=
EXTT7=
EXTT8=
EXTT9=
EXTT10=
EXTT11=
EXTT12=
EXTT13=
EXTT14=
EXTT15=
EXTT16=
EXTT17=
EXTT18=
EXTT19=
PLAYORDER=
